<svg width="99" height="12" viewBox="0 0 99 12" fill="none" xmlns="http://www.w3.org/2000/svg">
<path d="M4.186 1.928C3.44867 1.928 3.08 2.32933 3.08 3.132V3.58H5.138V4.98H3.136V11H1.386V4.98H0.154V3.58H1.386V3.104C1.386 2.30133 1.61933 1.67133 2.086 1.214C2.55267 0.747333 3.21067 0.514 4.06 0.514C4.732 0.514 5.25933 0.649333 5.642 0.92L5.152 2.236C4.85333 2.03067 4.53133 1.928 4.186 1.928ZM7.434 3.524H9.184V11H7.434V3.524ZM8.316 2.292C7.99867 2.292 7.73267 2.194 7.518 1.998C7.30333 1.79267 7.196 1.54067 7.196 1.242C7.196 0.943333 7.30333 0.695999 7.518 0.499999C7.73267 0.294666 7.99867 0.192 8.316 0.192C8.63333 0.192 8.89933 0.29 9.114 0.485999C9.32867 0.672666 9.436 0.910666 9.436 1.2C9.436 1.508 9.32867 1.76933 9.114 1.984C8.90867 2.18933 8.64267 2.292 8.316 2.292ZM11.4839 0.611999H13.2339V11H11.4839V0.611999ZM22.5588 7.304C22.5588 7.42533 22.5495 7.598 22.5308 7.822H16.6648C16.7675 8.37267 17.0335 8.81133 17.4628 9.138C17.9015 9.45533 18.4428 9.614 19.0868 9.614C19.9081 9.614 20.5848 9.34333 21.1168 8.802L22.0548 9.88C21.7188 10.2813 21.2941 10.5847 20.7808 10.79C20.2675 10.9953 19.6888 11.098 19.0448 11.098C18.2235 11.098 17.5001 10.9347 16.8748 10.608C16.2495 10.2813 15.7641 9.82867 15.4188 9.25C15.0828 8.662 14.9148 7.99933 14.9148 7.262C14.9148 6.534 15.0781 5.88067 15.4048 5.302C15.7408 4.714 16.2028 4.25667 16.7908 3.93C17.3788 3.60333 18.0415 3.44 18.7788 3.44C19.5068 3.44 20.1555 3.60333 20.7248 3.93C21.3035 4.24733 21.7515 4.7 22.0688 5.288C22.3955 5.86667 22.5588 6.53867 22.5588 7.304ZM18.7788 4.84C18.2188 4.84 17.7428 5.008 17.3508 5.344C16.9681 5.67067 16.7348 6.10933 16.6508 6.66H20.8928C20.8181 6.11867 20.5895 5.68 20.2068 5.344C19.8241 5.008 19.3481 4.84 18.7788 4.84ZM23.9985 6.38H27.8485V7.836H23.9985V6.38ZM32.0732 11.098C31.4666 11.098 30.8739 11.0187 30.2952 10.86C29.7166 10.7013 29.2546 10.5007 28.9092 10.258L29.5812 8.928C29.9172 9.152 30.3186 9.334 30.7852 9.474C31.2612 9.60467 31.7279 9.67 32.1852 9.67C33.2306 9.67 33.7532 9.39467 33.7532 8.844C33.7532 8.58267 33.6179 8.40067 33.3472 8.298C33.0859 8.19533 32.6612 8.09733 32.0732 8.004C31.4572 7.91067 30.9532 7.80333 30.5612 7.682C30.1786 7.56067 29.8426 7.35067 29.5532 7.052C29.2732 6.744 29.1332 6.31933 29.1332 5.778C29.1332 5.06867 29.4272 4.504 30.0152 4.084C30.6126 3.65467 31.4152 3.44 32.4232 3.44C32.9366 3.44 33.4499 3.50067 33.9632 3.622C34.4766 3.734 34.8966 3.888 35.2232 4.084L34.5512 5.414C33.9166 5.04067 33.2026 4.854 32.4092 4.854C31.8959 4.854 31.5039 4.93333 31.2332 5.092C30.9719 5.24133 30.8412 5.442 30.8412 5.694C30.8412 5.974 30.9812 6.17467 31.2612 6.296C31.5506 6.408 31.9939 6.51533 32.5912 6.618C33.1886 6.71133 33.6786 6.81867 34.0612 6.94C34.4439 7.06133 34.7706 7.26667 35.0412 7.556C35.3212 7.84533 35.4612 8.256 35.4612 8.788C35.4612 9.488 35.1579 10.048 34.5512 10.468C33.9446 10.888 33.1186 11.098 32.0732 11.098ZM43.9963 7.304C43.9963 7.42533 43.987 7.598 43.9683 7.822H38.1023C38.205 8.37267 38.471 8.81133 38.9003 9.138C39.339 9.45533 39.8803 9.614 40.5243 9.614C41.3456 9.614 42.0223 9.34333 42.5543 8.802L43.4923 9.88C43.1563 10.2813 42.7316 10.5847 42.2183 10.79C41.705 10.9953 41.1263 11.098 40.4823 11.098C39.661 11.098 38.9376 10.9347 38.3123 10.608C37.687 10.2813 37.2016 9.82867 36.8563 9.25C36.5203 8.662 36.3523 7.99933 36.3523 7.262C36.3523 6.534 36.5156 5.88067 36.8423 5.302C37.1783 4.714 37.6403 4.25667 38.2283 3.93C38.8163 3.60333 39.479 3.44 40.2163 3.44C40.9443 3.44 41.593 3.60333 42.1623 3.93C42.741 4.24733 43.189 4.7 43.5063 5.288C43.833 5.86667 43.9963 6.53867 43.9963 7.304ZM40.2163 4.84C39.6563 4.84 39.1803 5.008 38.7883 5.344C38.4056 5.67067 38.1723 6.10933 38.0883 6.66H42.3303C42.2556 6.11867 42.027 5.68 41.6443 5.344C41.2616 5.008 40.7856 4.84 40.2163 4.84ZM48.3282 3.44C49.4296 3.44 50.2696 3.706 50.8482 4.238C51.4362 4.76067 51.7302 5.554 51.7302 6.618V11H50.0782V10.09C49.8636 10.4167 49.5556 10.6687 49.1542 10.846C48.7622 11.014 48.2862 11.098 47.7262 11.098C47.1662 11.098 46.6762 11.0047 46.2562 10.818C45.8362 10.622 45.5096 10.356 45.2762 10.02C45.0522 9.67467 44.9402 9.28733 44.9402 8.858C44.9402 8.186 45.1876 7.64933 45.6822 7.248C46.1862 6.83733 46.9749 6.632 48.0482 6.632H49.9802V6.52C49.9802 5.99733 49.8216 5.596 49.5042 5.316C49.1962 5.036 48.7342 4.896 48.1182 4.896C47.6982 4.896 47.2829 4.96133 46.8722 5.092C46.4709 5.22267 46.1302 5.40467 45.8502 5.638L45.1642 4.364C45.5562 4.06533 46.0276 3.83667 46.5782 3.678C47.1289 3.51933 47.7122 3.44 48.3282 3.44ZM48.0902 9.824C48.5289 9.824 48.9162 9.726 49.2522 9.53C49.5976 9.32467 49.8402 9.03533 49.9802 8.662V7.794H48.1742C47.1662 7.794 46.6622 8.12533 46.6622 8.788C46.6622 9.10533 46.7882 9.35733 47.0402 9.544C47.2922 9.73067 47.6422 9.824 48.0902 9.824ZM55.6421 4.616C56.1461 3.832 57.0328 3.44 58.3021 3.44V5.106C58.1528 5.078 58.0175 5.064 57.8961 5.064C57.2148 5.064 56.6828 5.26467 56.3001 5.666C55.9175 6.058 55.7261 6.62733 55.7261 7.374V11H53.9761V3.524H55.6421V4.616ZM63.1483 11.098C62.3736 11.098 61.6783 10.9347 61.0623 10.608C60.4463 10.2813 59.9656 9.82867 59.6203 9.25C59.275 8.662 59.1023 7.99933 59.1023 7.262C59.1023 6.52467 59.275 5.86667 59.6203 5.288C59.9656 4.70933 60.4416 4.25667 61.0483 3.93C61.6643 3.60333 62.3643 3.44 63.1483 3.44C63.8856 3.44 64.5296 3.58933 65.0803 3.888C65.6403 4.18667 66.0603 4.616 66.3403 5.176L64.9963 5.96C64.7816 5.61467 64.511 5.358 64.1843 5.19C63.867 5.01267 63.517 4.924 63.1343 4.924C62.481 4.924 61.9396 5.13867 61.5103 5.568C61.081 5.988 60.8663 6.55267 60.8663 7.262C60.8663 7.97133 61.0763 8.54067 61.4963 8.97C61.9256 9.39 62.4716 9.6 63.1343 9.6C63.517 9.6 63.867 9.516 64.1843 9.348C64.511 9.17067 64.7816 8.90933 64.9963 8.564L66.3403 9.348C66.051 9.908 65.6263 10.342 65.0663 10.65C64.5156 10.9487 63.8763 11.098 63.1483 11.098ZM72.0267 3.44C72.9694 3.44 73.7254 3.71533 74.2947 4.266C74.8641 4.81667 75.1487 5.63333 75.1487 6.716V11H73.3987V6.94C73.3987 6.28667 73.2447 5.79667 72.9367 5.47C72.6287 5.134 72.1901 4.966 71.6207 4.966C70.9767 4.966 70.4681 5.162 70.0947 5.554C69.7214 5.93667 69.5347 6.492 69.5347 7.22V11H67.7847V0.611999H69.5347V4.392C69.8241 4.084 70.1787 3.85067 70.5987 3.692C71.0281 3.524 71.5041 3.44 72.0267 3.44ZM76.9907 6.38H80.8407V7.836H76.9907V6.38ZM86.3798 11.14C85.5958 11.14 84.8958 10.944 84.2798 10.552C83.6638 10.1507 83.1784 9.572 82.8238 8.816C82.4691 8.05067 82.2918 7.14533 82.2918 6.1C82.2918 5.05467 82.4691 4.154 82.8238 3.398C83.1784 2.63267 83.6638 2.054 84.2798 1.662C84.8958 1.26067 85.5958 1.06 86.3798 1.06C87.1638 1.06 87.8638 1.26067 88.4798 1.662C89.1051 2.054 89.5951 2.63267 89.9498 3.398C90.3044 4.154 90.4818 5.05467 90.4818 6.1C90.4818 7.14533 90.3044 8.05067 89.9498 8.816C89.5951 9.572 89.1051 10.1507 88.4798 10.552C87.8638 10.944 87.1638 11.14 86.3798 11.14ZM86.3798 9.558C87.0798 9.558 87.6304 9.26867 88.0318 8.69C88.4424 8.11133 88.6478 7.248 88.6478 6.1C88.6478 4.952 88.4424 4.08867 88.0318 3.51C87.6304 2.93133 87.0798 2.642 86.3798 2.642C85.6891 2.642 85.1384 2.93133 84.7278 3.51C84.3264 4.08867 84.1258 4.952 84.1258 6.1C84.1258 7.248 84.3264 8.11133 84.7278 8.69C85.1384 9.26867 85.6891 9.558 86.3798 9.558ZM98.7413 9.46V11H91.5173V9.782L95.4093 6.086C95.848 5.666 96.142 5.302 96.2913 4.994C96.45 4.67667 96.5293 4.364 96.5293 4.056C96.5293 3.59867 96.3753 3.24867 96.0673 3.006C95.7593 2.76333 95.3067 2.642 94.7093 2.642C93.7107 2.642 92.9453 2.98267 92.4133 3.664L91.1393 2.684C91.522 2.17067 92.0353 1.774 92.6793 1.494C93.3327 1.20467 94.0607 1.06 94.8633 1.06C95.9273 1.06 96.7767 1.312 97.4113 1.816C98.046 2.32 98.3633 3.006 98.3633 3.874C98.3633 4.406 98.2513 4.90533 98.0273 5.372C97.8033 5.83867 97.374 6.37067 96.7393 6.968L94.1213 9.46H98.7413Z" fill="currentColor"/>
</svg>
